<mxfile host="65bd71144e">
    <diagram id="4ty0VojLOAAIHduZpWhz" name="Page-1">
        <mxGraphModel dx="1640" dy="956" grid="1" gridSize="10" guides="1" tooltips="1" connect="1" arrows="1" fold="1" page="1" pageScale="1" pageWidth="850" pageHeight="1100" math="0" shadow="0">
            <root>
                <mxCell id="0"/>
                <mxCell id="1" parent="0"/>
                <mxCell id="3" value="" style="strokeWidth=1;shadow=0;dashed=0;align=center;html=1;shape=mxgraph.mockup.containers.browserWindow;rSize=0;strokeColor=#666666;strokeColor2=#008cff;strokeColor3=#c4c4c4;mainText=,;recursiveResize=0;" vertex="1" parent="1">
                    <mxGeometry x="80" y="80" width="680" height="440" as="geometry"/>
                </mxCell>
                <mxCell id="4" value="code-grade" style="strokeWidth=1;shadow=0;dashed=0;align=center;html=1;shape=mxgraph.mockup.containers.anchor;fontSize=17;fontColor=#666666;align=left;" vertex="1" parent="3">
                    <mxGeometry x="60" y="12" width="110" height="26" as="geometry"/>
                </mxCell>
                <mxCell id="5" value="https://www.code-grade.io" style="strokeWidth=1;shadow=0;dashed=0;align=center;html=1;shape=mxgraph.mockup.containers.anchor;rSize=0;fontSize=17;fontColor=#666666;align=left;" vertex="1" parent="3">
                    <mxGeometry x="130" y="60" width="250" height="26" as="geometry"/>
                </mxCell>
                <mxCell id="7" value="" style="verticalLabelPosition=bottom;shadow=0;dashed=0;align=center;html=1;verticalAlign=top;strokeWidth=1;shape=mxgraph.mockup.graphics.simpleIcon;strokeColor=#999999;" vertex="1" parent="3">
                    <mxGeometry x="20" y="120" width="50" height="40" as="geometry"/>
                </mxCell>
                <mxCell id="8" value="" style="verticalLabelPosition=bottom;shadow=0;dashed=0;align=center;html=1;verticalAlign=top;strokeWidth=1;shape=mxgraph.mockup.graphics.simpleIcon;strokeColor=#999999;" vertex="1" parent="3">
                    <mxGeometry x="320" y="200" width="320" height="220" as="geometry"/>
                </mxCell>
                <mxCell id="10" value="" style="strokeWidth=1;shadow=0;dashed=0;align=center;html=1;shape=mxgraph.mockup.rrect;rSize=10;fillColor=#ffffff;strokeColor=#666666;" vertex="1" parent="3">
                    <mxGeometry x="390" y="120" width="180" height="40" as="geometry"/>
                </mxCell>
                <mxCell id="11" value="Register" style="strokeColor=inherit;fillColor=inherit;gradientColor=inherit;strokeWidth=1;shadow=0;dashed=0;align=center;html=1;shape=mxgraph.mockup.rrect;rSize=0;fontSize=17;fontColor=#666666;fontStyle=1;resizeHeight=1;" vertex="1" parent="10">
                    <mxGeometry width="125" height="40" relative="1" as="geometry">
                        <mxPoint x="125" as="offset"/>
                    </mxGeometry>
                </mxCell>
                <mxCell id="14" value="Login" style="strokeWidth=1;shadow=0;dashed=0;align=center;html=1;shape=mxgraph.mockup.leftButton;rSize=10;fontSize=17;fontColor=#ffffff;fontStyle=1;fillColor=#008cff;strokeColor=#008cff;resizeHeight=1;" vertex="1" parent="10">
                    <mxGeometry width="125" height="40" relative="1" as="geometry"/>
                </mxCell>
                <mxCell id="15" value="Start As an Evaluator" style="strokeWidth=1;shadow=0;dashed=0;align=center;html=1;shape=mxgraph.mockup.containers.rrect;rSize=0;strokeColor=#666666;fontColor=#666666;fontSize=17;verticalAlign=top;whiteSpace=wrap;fillColor=#ffffff;spacingTop=32;" vertex="1" parent="3">
                    <mxGeometry x="20" y="200" width="110" height="150" as="geometry"/>
                </mxCell>
                <mxCell id="18" value="Register" style="strokeWidth=1;shadow=0;dashed=0;align=center;html=1;shape=mxgraph.mockup.containers.rrect;rSize=0;fontSize=16;fontColor=#666666;strokeColor=#c4c4c4;resizable=0;whiteSpace=wrap;fillColor=#ffffff;" vertex="1" parent="15">
                    <mxGeometry x="0.5" y="1" width="120" height="25" relative="1" as="geometry">
                        <mxPoint x="-60" y="-33" as="offset"/>
                    </mxGeometry>
                </mxCell>
                <mxCell id="19" value="Start As a Student" style="strokeWidth=1;shadow=0;dashed=0;align=center;html=1;shape=mxgraph.mockup.containers.rrect;rSize=0;strokeColor=#666666;fontColor=#666666;fontSize=17;verticalAlign=top;whiteSpace=wrap;fillColor=#ffffff;spacingTop=32;" vertex="1" parent="3">
                    <mxGeometry x="150" y="200" width="110" height="150" as="geometry"/>
                </mxCell>
                <mxCell id="20" value="Register" style="strokeWidth=1;shadow=0;dashed=0;align=center;html=1;shape=mxgraph.mockup.containers.rrect;rSize=0;fontSize=16;fontColor=#666666;strokeColor=#c4c4c4;resizable=0;whiteSpace=wrap;fillColor=#ffffff;" vertex="1" parent="19">
                    <mxGeometry x="0.5" y="1" width="120" height="25" relative="1" as="geometry">
                        <mxPoint x="-60" y="-33" as="offset"/>
                    </mxGeometry>
                </mxCell>
                <mxCell id="24" value="Enter as Guest" style="strokeWidth=1;shadow=0;dashed=0;align=center;html=1;shape=mxgraph.mockup.buttons.button;strokeColor=#666666;fontColor=#ffffff;mainText=;buttonStyle=round;fontSize=17;fontStyle=1;fillColor=#008cff;whiteSpace=wrap;" vertex="1" parent="3">
                    <mxGeometry x="20" y="370" width="240" height="50" as="geometry"/>
                </mxCell>
                <mxCell id="6" value="Landing page" style="text;html=1;strokeColor=none;fillColor=none;align=center;verticalAlign=middle;whiteSpace=wrap;rounded=0;" vertex="1" parent="1">
                    <mxGeometry x="250" y="30" width="120" height="20" as="geometry"/>
                </mxCell>
                <mxCell id="21" value="" style="strokeWidth=1;shadow=0;dashed=0;align=center;html=1;shape=mxgraph.mockup.containers.browserWindow;rSize=0;strokeColor=#666666;strokeColor2=#008cff;strokeColor3=#c4c4c4;mainText=,;recursiveResize=0;" vertex="1" parent="1">
                    <mxGeometry x="80" y="550" width="680" height="530" as="geometry"/>
                </mxCell>
                <mxCell id="22" value="Login-code-grade" style="strokeWidth=1;shadow=0;dashed=0;align=center;html=1;shape=mxgraph.mockup.containers.anchor;fontSize=17;fontColor=#666666;align=left;" vertex="1" parent="21">
                    <mxGeometry x="60" y="12" width="110" height="26" as="geometry"/>
                </mxCell>
                <mxCell id="23" value="https://www.code-grade.io/login" style="strokeWidth=1;shadow=0;dashed=0;align=center;html=1;shape=mxgraph.mockup.containers.anchor;rSize=0;fontSize=17;fontColor=#666666;align=left;" vertex="1" parent="21">
                    <mxGeometry x="130" y="60" width="250" height="26" as="geometry"/>
                </mxCell>
                <mxCell id="40" value="" style="verticalLabelPosition=bottom;shadow=0;dashed=0;align=center;html=1;verticalAlign=top;strokeWidth=1;shape=mxgraph.mockup.graphics.simpleIcon;strokeColor=#999999;" vertex="1" parent="21">
                    <mxGeometry x="50" y="140" width="50" height="40" as="geometry"/>
                </mxCell>
                <mxCell id="55" value="&lt;h1&gt;Heading&lt;/h1&gt;&lt;p&gt;Lorem ipsum dolor sit amet, consectetur adipisicing elit, sed do eiusmod tempor incididunt ut labore et dolore magna aliqua.&lt;/p&gt;" style="text;html=1;strokeColor=none;fillColor=none;spacing=5;spacingTop=-20;whiteSpace=wrap;overflow=hidden;rounded=0;" vertex="1" parent="21">
                    <mxGeometry x="100" y="220" width="190" height="120" as="geometry"/>
                </mxCell>
                <mxCell id="42" value="" style="group" vertex="1" connectable="0" parent="21">
                    <mxGeometry x="380" y="180" width="200" height="330" as="geometry"/>
                </mxCell>
                <mxCell id="25" value="" style="strokeWidth=1;shadow=0;dashed=0;align=center;html=1;shape=mxgraph.mockup.forms.rrect;rSize=0;strokeColor=#999999;fillColor=#ffffff;" vertex="1" parent="42">
                    <mxGeometry y="30" width="200" height="300" as="geometry"/>
                </mxCell>
                <mxCell id="26" value="Sign In" style="strokeWidth=1;shadow=0;dashed=0;align=center;html=1;shape=mxgraph.mockup.forms.anchor;fontSize=12;fontColor=#666666;align=left;resizeWidth=1;spacingLeft=0;" vertex="1" parent="25">
                    <mxGeometry width="100" height="20" relative="1" as="geometry">
                        <mxPoint x="10" y="10" as="offset"/>
                    </mxGeometry>
                </mxCell>
                <mxCell id="27" value="" style="shape=line;strokeColor=#ddeeff;strokeWidth=2;html=1;resizeWidth=1;" vertex="1" parent="25">
                    <mxGeometry width="180" height="10" relative="1" as="geometry">
                        <mxPoint x="10" y="30" as="offset"/>
                    </mxGeometry>
                </mxCell>
                <mxCell id="28" value="User Name:" style="strokeWidth=1;shadow=0;dashed=0;align=center;html=1;shape=mxgraph.mockup.forms.anchor;fontSize=12;fontColor=#666666;align=left;resizeWidth=1;spacingLeft=0;" vertex="1" parent="25">
                    <mxGeometry width="100" height="20" relative="1" as="geometry">
                        <mxPoint x="10" y="40" as="offset"/>
                    </mxGeometry>
                </mxCell>
                <mxCell id="29" value="johndoe" style="strokeWidth=1;shadow=0;dashed=0;align=center;html=1;shape=mxgraph.mockup.forms.rrect;rSize=0;strokeColor=#999999;fontColor=#666666;align=left;spacingLeft=5;resizeWidth=1;" vertex="1" parent="25">
                    <mxGeometry width="180" height="25" relative="1" as="geometry">
                        <mxPoint x="10" y="60" as="offset"/>
                    </mxGeometry>
                </mxCell>
                <mxCell id="30" value="Password:" style="strokeWidth=1;shadow=0;dashed=0;align=center;html=1;shape=mxgraph.mockup.forms.anchor;fontSize=12;fontColor=#666666;align=left;resizeWidth=1;spacingLeft=0;" vertex="1" parent="25">
                    <mxGeometry width="100" height="20" relative="1" as="geometry">
                        <mxPoint x="10" y="95" as="offset"/>
                    </mxGeometry>
                </mxCell>
                <mxCell id="31" value="********" style="strokeWidth=1;shadow=0;dashed=0;align=center;html=1;shape=mxgraph.mockup.forms.rrect;rSize=0;strokeColor=#999999;fontColor=#666666;align=left;spacingLeft=5;resizeWidth=1;" vertex="1" parent="25">
                    <mxGeometry width="180" height="25" relative="1" as="geometry">
                        <mxPoint x="10" y="115" as="offset"/>
                    </mxGeometry>
                </mxCell>
                <mxCell id="32" value="SIGN IN" style="strokeWidth=1;shadow=0;dashed=0;align=center;html=1;shape=mxgraph.mockup.forms.rrect;rSize=5;strokeColor=none;fontColor=#ffffff;fillColor=#66bbff;fontSize=16;fontStyle=1;" vertex="1" parent="25">
                    <mxGeometry y="1" width="180" height="30" relative="1" as="geometry">
                        <mxPoint x="10" y="-150" as="offset"/>
                    </mxGeometry>
                </mxCell>
                <mxCell id="33" value="Forgot Password?" style="strokeWidth=1;shadow=0;dashed=0;align=center;html=1;shape=mxgraph.mockup.forms.anchor;fontSize=12;fontColor=#9999ff;align=left;spacingLeft=0;fontStyle=4;resizeWidth=1;" vertex="1" parent="25">
                    <mxGeometry y="1" width="150" height="20" relative="1" as="geometry">
                        <mxPoint x="10" y="-110" as="offset"/>
                    </mxGeometry>
                </mxCell>
                <mxCell id="34" value="" style="shape=line;strokeColor=#ddeeff;strokeWidth=2;html=1;resizeWidth=1;" vertex="1" parent="25">
                    <mxGeometry y="1" width="180" height="10" relative="1" as="geometry">
                        <mxPoint x="10" y="-90" as="offset"/>
                    </mxGeometry>
                </mxCell>
                <mxCell id="35" value="" style="strokeWidth=1;shadow=0;dashed=0;align=center;html=1;shape=mxgraph.mockup.forms.anchor;fontSize=12;fontColor=#666666;align=left;spacingLeft=0;resizeWidth=1;" vertex="1" parent="25">
                    <mxGeometry y="1" width="150" height="20" relative="1" as="geometry">
                        <mxPoint x="10" y="-70" as="offset"/>
                    </mxGeometry>
                </mxCell>
                <mxCell id="37" value="Student" style="strokeWidth=1;shadow=0;dashed=0;align=center;html=1;shape=mxgraph.mockup.forms.uRect;fontSize=17;fontColor=#666666;align=left;spacingLeft=5;strokeColor=#666666;" vertex="1" parent="42">
                    <mxGeometry width="100" height="30" as="geometry"/>
                </mxCell>
                <mxCell id="38" value="Evaluator" style="strokeWidth=1;shadow=0;dashed=0;align=center;html=1;shape=mxgraph.mockup.forms.uRect;fontSize=17;fontColor=#ffffff;align=left;spacingLeft=5;strokeColor=#008cff;fillColor=#008cff;" vertex="1" parent="42">
                    <mxGeometry x="100" width="100" height="30" as="geometry"/>
                </mxCell>
                <mxCell id="56" value="Sign Up" style="strokeWidth=1;shadow=0;dashed=0;align=center;html=1;shape=mxgraph.mockup.buttons.button;strokeColor=#666666;fontColor=#ffffff;mainText=;buttonStyle=round;fontSize=17;fontStyle=1;fillColor=#008cff;whiteSpace=wrap;" vertex="1" parent="21">
                    <mxGeometry x="100" y="340" width="170" height="50" as="geometry"/>
                </mxCell>
                <mxCell id="57" value="" style="strokeWidth=1;shadow=0;dashed=0;align=center;html=1;shape=mxgraph.mockup.containers.browserWindow;rSize=0;strokeColor=#666666;strokeColor2=#008cff;strokeColor3=#c4c4c4;mainText=,;recursiveResize=0;" vertex="1" parent="1">
                    <mxGeometry x="900" y="540" width="680" height="530" as="geometry"/>
                </mxCell>
                <mxCell id="58" value="Signup-code-grade" style="strokeWidth=1;shadow=0;dashed=0;align=center;html=1;shape=mxgraph.mockup.containers.anchor;fontSize=17;fontColor=#666666;align=left;" vertex="1" parent="57">
                    <mxGeometry x="60" y="12" width="110" height="26" as="geometry"/>
                </mxCell>
                <mxCell id="59" value="https://www.code-grade.io/signup" style="strokeWidth=1;shadow=0;dashed=0;align=center;html=1;shape=mxgraph.mockup.containers.anchor;rSize=0;fontSize=17;fontColor=#666666;align=left;" vertex="1" parent="57">
                    <mxGeometry x="130" y="60" width="250" height="26" as="geometry"/>
                </mxCell>
                <mxCell id="60" value="" style="verticalLabelPosition=bottom;shadow=0;dashed=0;align=center;html=1;verticalAlign=top;strokeWidth=1;shape=mxgraph.mockup.graphics.simpleIcon;strokeColor=#999999;" vertex="1" parent="57">
                    <mxGeometry x="50" y="140" width="50" height="40" as="geometry"/>
                </mxCell>
                <mxCell id="61" value="&lt;h1&gt;Heading&lt;/h1&gt;&lt;p&gt;Lorem ipsum dolor sit amet, consectetur adipisicing elit, sed do eiusmod tempor incididunt ut labore et dolore magna aliqua.&lt;/p&gt;" style="text;html=1;strokeColor=none;fillColor=none;spacing=5;spacingTop=-20;whiteSpace=wrap;overflow=hidden;rounded=0;" vertex="1" parent="57">
                    <mxGeometry x="100" y="220" width="190" height="120" as="geometry"/>
                </mxCell>
                <mxCell id="62" value="" style="group" vertex="1" connectable="0" parent="57">
                    <mxGeometry x="380" y="180" width="200" height="330" as="geometry"/>
                </mxCell>
                <mxCell id="63" value="" style="strokeWidth=1;shadow=0;dashed=0;align=center;html=1;shape=mxgraph.mockup.forms.rrect;rSize=0;strokeColor=#999999;fillColor=#ffffff;" vertex="1" parent="62">
                    <mxGeometry y="30" width="200" height="300" as="geometry"/>
                </mxCell>
                <mxCell id="64" value="Sign In" style="strokeWidth=1;shadow=0;dashed=0;align=center;html=1;shape=mxgraph.mockup.forms.anchor;fontSize=12;fontColor=#666666;align=left;resizeWidth=1;spacingLeft=0;" vertex="1" parent="63">
                    <mxGeometry width="100" height="20" relative="1" as="geometry">
                        <mxPoint x="10" y="10" as="offset"/>
                    </mxGeometry>
                </mxCell>
                <mxCell id="65" value="" style="shape=line;strokeColor=#ddeeff;strokeWidth=2;html=1;resizeWidth=1;" vertex="1" parent="63">
                    <mxGeometry width="180" height="10" relative="1" as="geometry">
                        <mxPoint x="10" y="30" as="offset"/>
                    </mxGeometry>
                </mxCell>
                <mxCell id="66" value="User Name:" style="strokeWidth=1;shadow=0;dashed=0;align=center;html=1;shape=mxgraph.mockup.forms.anchor;fontSize=12;fontColor=#666666;align=left;resizeWidth=1;spacingLeft=0;" vertex="1" parent="63">
                    <mxGeometry width="100" height="20" relative="1" as="geometry">
                        <mxPoint x="10" y="40" as="offset"/>
                    </mxGeometry>
                </mxCell>
                <mxCell id="67" value="johndoe" style="strokeWidth=1;shadow=0;dashed=0;align=center;html=1;shape=mxgraph.mockup.forms.rrect;rSize=0;strokeColor=#999999;fontColor=#666666;align=left;spacingLeft=5;resizeWidth=1;" vertex="1" parent="63">
                    <mxGeometry width="180" height="25" relative="1" as="geometry">
                        <mxPoint x="10" y="60" as="offset"/>
                    </mxGeometry>
                </mxCell>
                <mxCell id="68" value="Password:" style="strokeWidth=1;shadow=0;dashed=0;align=center;html=1;shape=mxgraph.mockup.forms.anchor;fontSize=12;fontColor=#666666;align=left;resizeWidth=1;spacingLeft=0;" vertex="1" parent="63">
                    <mxGeometry width="100" height="20" relative="1" as="geometry">
                        <mxPoint x="10" y="95" as="offset"/>
                    </mxGeometry>
                </mxCell>
                <mxCell id="69" value="********" style="strokeWidth=1;shadow=0;dashed=0;align=center;html=1;shape=mxgraph.mockup.forms.rrect;rSize=0;strokeColor=#999999;fontColor=#666666;align=left;spacingLeft=5;resizeWidth=1;" vertex="1" parent="63">
                    <mxGeometry width="180" height="25" relative="1" as="geometry">
                        <mxPoint x="10" y="115" as="offset"/>
                    </mxGeometry>
                </mxCell>
                <mxCell id="71" value="" style="strokeWidth=1;shadow=0;dashed=0;align=center;html=1;shape=mxgraph.mockup.forms.anchor;fontSize=12;fontColor=#9999ff;align=left;spacingLeft=0;fontStyle=4;resizeWidth=1;" vertex="1" parent="63">
                    <mxGeometry y="1" width="150" height="20" relative="1" as="geometry">
                        <mxPoint x="10" y="-110" as="offset"/>
                    </mxGeometry>
                </mxCell>
                <mxCell id="72" value="" style="shape=line;strokeColor=#ddeeff;strokeWidth=2;html=1;resizeWidth=1;" vertex="1" parent="63">
                    <mxGeometry y="1" width="180" height="10" relative="1" as="geometry">
                        <mxPoint x="10" y="-100" as="offset"/>
                    </mxGeometry>
                </mxCell>
                <mxCell id="73" value="" style="strokeWidth=1;shadow=0;dashed=0;align=center;html=1;shape=mxgraph.mockup.forms.anchor;fontSize=12;fontColor=#666666;align=left;spacingLeft=0;resizeWidth=1;" vertex="1" parent="63">
                    <mxGeometry y="1" width="150" height="20" relative="1" as="geometry">
                        <mxPoint x="10" y="-70" as="offset"/>
                    </mxGeometry>
                </mxCell>
                <mxCell id="74" value="SIGN UP" style="strokeWidth=1;shadow=0;dashed=0;align=center;html=1;shape=mxgraph.mockup.forms.rrect;rSize=5;strokeColor=none;fontColor=#ffffff;fillColor=#66bbff;fontSize=16;fontStyle=1;" vertex="1" parent="63">
                    <mxGeometry y="1" width="180" height="30" relative="1" as="geometry">
                        <mxPoint x="10" y="-90" as="offset"/>
                    </mxGeometry>
                </mxCell>
                <mxCell id="75" value="Student" style="strokeWidth=1;shadow=0;dashed=0;align=center;html=1;shape=mxgraph.mockup.forms.uRect;fontSize=17;fontColor=#666666;align=left;spacingLeft=5;strokeColor=#666666;" vertex="1" parent="62">
                    <mxGeometry width="100" height="30" as="geometry"/>
                </mxCell>
                <mxCell id="76" value="Evaluator" style="strokeWidth=1;shadow=0;dashed=0;align=center;html=1;shape=mxgraph.mockup.forms.uRect;fontSize=17;fontColor=#ffffff;align=left;spacingLeft=5;strokeColor=#008cff;fillColor=#008cff;" vertex="1" parent="62">
                    <mxGeometry x="100" width="100" height="30" as="geometry"/>
                </mxCell>
                <mxCell id="77" value="Login" style="strokeWidth=1;shadow=0;dashed=0;align=center;html=1;shape=mxgraph.mockup.buttons.button;strokeColor=#666666;fontColor=#ffffff;mainText=;buttonStyle=round;fontSize=17;fontStyle=1;fillColor=#008cff;whiteSpace=wrap;" vertex="1" parent="57">
                    <mxGeometry x="100" y="340" width="170" height="50" as="geometry"/>
                </mxCell>
                <mxCell id="78" value="Confirm Password:" style="strokeWidth=1;shadow=0;dashed=0;align=center;html=1;shape=mxgraph.mockup.forms.anchor;fontSize=12;fontColor=#666666;align=left;resizeWidth=1;spacingLeft=0;" vertex="1" parent="1">
                    <mxGeometry x="1290" y="900" width="100" height="20" as="geometry"/>
                </mxCell>
                <mxCell id="79" value="********" style="strokeWidth=1;shadow=0;dashed=0;align=center;html=1;shape=mxgraph.mockup.forms.rrect;rSize=0;strokeColor=#999999;fontColor=#666666;align=left;spacingLeft=5;resizeWidth=1;" vertex="1" parent="1">
                    <mxGeometry x="1290" y="920" width="180" height="25" as="geometry"/>
                </mxCell>
            </root>
        </mxGraphModel>
    </diagram>
</mxfile>